# xmcd
#
# Track frame offsets: 
#        150
#        14781
#        29160
#        43366
#        66812
#        84843
#        96852
#        110110
#        125313
#        143287
#        161647
#        180298
#
# Disc length: 2599 seconds
#
# Revision: 0
# Processed by: cddbd v1.5.2PL0 Copyright (c) Steve Scherf et al.
# Submitted via: ExactAudioCopyFreeDBPlugin 1.0
#
DISCID=a00a250c
DTITLE=Dirty Deep - Shotgund Wedding
DYEAR=2014
DGENRE=Blues
TTITLE0=Bottleneck
TTITLE1=Low Down
TTITLE2=Junky Green Truck
TTITLE3=Middle of Nowhere
TTITLE4=Midnight Bus
TTITLE5=Let it Ride
TTITLE6=Til the Day I Die
TTITLE7=John the Revelator
TTITLE8=Release Me
TTITLE9=What the Hell
TTITLE10=She's a Devil Inside
TTITLE11=When the Sun Comes Up
EXTD=
EXTT0=
EXTT1=
EXTT2=
EXTT3=
EXTT4=
EXTT5=
EXTT6=
EXTT7=
EXTT8=
EXTT9=
EXTT10=
EXTT11=
PLAYORDER=
